<svg xmlns="http://www.w3.org/2000/svg" xmlns:xlink="http://www.w3.org/1999/xlink" version="1.1" width="256" height="256" viewBox="0 0 256 256" xml:space="preserve">

<defs>
</defs>
<g style="stroke: none; stroke-width: 0; stroke-dasharray: none; stroke-linecap: butt; stroke-linejoin: miter; stroke-miterlimit: 10; fill: none; fill-rule: nonzero; opacity: 1;" transform="translate(1.4065934065934016 1.4065934065934016) scale(2.81 2.81)" >
	<path d="M 80.591 28.612 C 74.209 14.787 60.25 5.853 45.029 5.853 c -20.467 0 -37.304 15.79 -38.996 35.827 l -4.178 -6.867 c -0.288 -0.472 -0.903 -0.621 -1.375 -0.334 c -0.472 0.287 -0.622 0.902 -0.334 1.375 l 5.882 9.666 c 0.018 0.029 0.049 0.044 0.069 0.07 c 0.053 0.071 0.112 0.132 0.182 0.186 c 0.043 0.034 0.085 0.063 0.133 0.09 c 0.077 0.042 0.158 0.068 0.246 0.088 c 0.037 0.009 0.068 0.034 0.106 0.038 C 6.803 45.998 6.843 46 6.882 46 c 0.133 0 0.263 -0.027 0.384 -0.078 c 0.122 -0.051 0.231 -0.124 0.323 -0.216 l 8.04 -8.04 c 0.391 -0.391 0.391 -1.023 0 -1.414 c -0.391 -0.391 -1.023 -0.391 -1.414 0 l -6.239 6.239 C 9.272 23.175 25.39 7.853 45.029 7.853 c 14.444 0 27.69 8.477 33.745 21.597 c 0.23 0.501 0.825 0.722 1.327 0.489 C 80.603 29.708 80.822 29.114 80.591 28.612 z" style="stroke: none; stroke-width: 1; stroke-dasharray: none; stroke-linecap: butt; stroke-linejoin: miter; stroke-miterlimit: 10; fill: rgb(0,0,0); fill-rule: nonzero; opacity: 1;" transform=" matrix(1 0 0 1 0 0) " stroke-linecap="round" />
	<path d="M 89.854 54.147 l -5.882 -9.667 c -0.017 -0.028 -0.048 -0.043 -0.068 -0.07 c -0.054 -0.071 -0.113 -0.133 -0.183 -0.187 c -0.043 -0.033 -0.084 -0.063 -0.131 -0.089 c -0.077 -0.042 -0.159 -0.068 -0.247 -0.089 c -0.037 -0.009 -0.068 -0.034 -0.106 -0.038 c -0.019 -0.002 -0.036 0.007 -0.055 0.006 C 83.16 44.011 83.141 44 83.118 44 c -0.071 0 -0.133 0.026 -0.2 0.04 c -0.054 0.011 -0.108 0.012 -0.159 0.032 c -0.131 0.051 -0.251 0.123 -0.349 0.221 l -8.039 8.039 c -0.391 0.391 -0.391 1.023 0 1.414 c 0.391 0.391 1.023 0.391 1.414 0 l 6.239 -6.238 C 80.728 66.825 64.61 82.146 44.971 82.146 c -14.963 0 -28.398 -8.905 -34.228 -22.687 c -0.214 -0.509 -0.8 -0.746 -1.311 -0.531 c -0.509 0.215 -0.747 0.802 -0.531 1.311 c 6.143 14.523 20.301 23.908 36.07 23.908 c 20.466 0 37.304 -15.791 38.996 -35.827 l 4.178 6.867 c 0.188 0.31 0.518 0.48 0.855 0.48 c 0.177 0 0.356 -0.047 0.519 -0.146 C 89.991 55.234 90.141 54.619 89.854 54.147 z" style="stroke: none; stroke-width: 1; stroke-dasharray: none; stroke-linecap: butt; stroke-linejoin: miter; stroke-miterlimit: 10; fill: rgb(0,0,0); fill-rule: nonzero; opacity: 1;" transform=" matrix(1 0 0 1 0 0) " stroke-linecap="round" />
	<path d="M 47.499 44.851 l -4.373 -1.6 c -2.327 -0.683 -4.147 -2.371 -4.994 -4.629 c -1.477 -3.939 0.526 -8.346 4.465 -9.823 c 3.941 -1.477 8.346 0.526 9.823 4.465 c 0.193 0.518 0.771 0.777 1.288 0.585 c 0.517 -0.194 0.778 -0.771 0.585 -1.288 c -1.358 -3.618 -4.673 -5.93 -8.293 -6.209 V 22.5 c 0 -0.552 -0.448 -1 -1 -1 s -1 0.448 -1 1 v 3.906 c -0.705 0.094 -1.411 0.26 -2.105 0.52 c -2.409 0.903 -4.321 2.69 -5.386 5.032 c -1.064 2.342 -1.153 4.957 -0.25 7.366 c 1.07 2.853 3.368 4.984 6.242 5.826 l 4.372 1.6 c 2.327 0.684 4.148 2.371 4.995 4.629 c 1.477 3.939 -0.526 8.346 -4.465 9.823 c -0.792 0.297 -1.601 0.447 -2.403 0.476 c 0 0 0 0 0 0 s 0 0 0 0 c -3.189 0.113 -6.239 -1.793 -7.419 -4.94 c -0.194 -0.517 -0.771 -0.777 -1.288 -0.585 c -0.517 0.194 -0.779 0.771 -0.585 1.288 c 1.356 3.616 4.673 5.912 8.292 6.192 V 67.5 c 0 0.553 0.448 1 1 1 s 1 -0.447 1 -1 v -3.906 c 0.705 -0.094 1.411 -0.259 2.105 -0.519 c 4.971 -1.864 7.499 -7.426 5.636 -12.398 C 52.671 47.823 50.373 45.692 47.499 44.851 z" style="stroke: none; stroke-width: 1; stroke-dasharray: none; stroke-linecap: butt; stroke-linejoin: miter; stroke-miterlimit: 10; fill: rgb(0,0,0); fill-rule: nonzero; opacity: 1;" transform=" matrix(1 0 0 1 0 0) " stroke-linecap="round" />
</g>
</svg>